<svg xmlns="http://www.w3.org/2000/svg" width="24" height="24" viewBox="0 0 24 24">
    <path fill="#959799" fill-rule="evenodd" d="M19.933 18.936c.104.232.086.503-.048.718-.133.215-.364.346-.612.346H4.728c-.253 0-.487-.135-.62-.356-.132-.221-.144-.497-.031-.73l2.909-6c.096-.199.273-.344.483-.394.21-.051.43-.003.604.13l2.327 1.8 3.927-5.4c.155-.212.401-.323.659-.296.254.028.476.192.584.432l4.363 9.75zM9.091 9.5C7.886 9.5 6.91 8.493 6.91 7.25S7.886 5 9.091 5s2.182 1.007 2.182 2.25S10.296 9.5 9.09 9.5z"/>
</svg>
