<?xml version="1.0" encoding="UTF-8"?>
<svg width="48px" height="48px" viewBox="0 0 48 48" version="1.1" xmlns="http://www.w3.org/2000/svg" xmlns:xlink="http://www.w3.org/1999/xlink">
    <!-- Generator: Sketch 51.2 (57519) - http://www.bohemiancoding.com/sketch -->
    <title>image</title>
    <desc>Created with Sketch.</desc>
    <defs></defs>
    <g id="image" stroke="none" stroke-width="1" fill="none" fill-rule="evenodd" fill-opacity="0.35">
        <path d="M33,27.2967426 L33,14 L15,14 L15,27.5857864 L17.8449855,24.7408009 L22.780078,27.7018564 L27.9892426,21.450859 L33,27.2967426 Z M33,30.3699241 L28.0107574,24.549141 L23.219922,30.2981436 L18.1550145,27.2591991 L15,30.4142136 L15,34 L33,34 L33,30.3699241 Z M35,12 L35,36 L13,36 L13,12 L35,12 Z M22,23 C20.3431458,23 19,21.6568542 19,20 C19,18.3431458 20.3431458,17 22,17 C23.6568542,17 25,18.3431458 25,20 C25,21.6568542 23.6568542,23 22,23 Z M22,21 C22.5522847,21 23,20.5522847 23,20 C23,19.4477153 22.5522847,19 22,19 C21.4477153,19 21,19.4477153 21,20 C21,20.5522847 21.4477153,21 22,21 Z" id="Combined-Shape" fill="#2C2F34" fill-rule="nonzero"></path>
    </g>
</svg>