<svg xmlns="http://www.w3.org/2000/svg" xmlns:xlink="http://www.w3.org/1999/xlink" width="68" height="32" viewBox="0 0 68 32">
  <defs>
    <path id="logo_vertical_color-a" d="M910.920802,222.763843 C912.319502,222.820959 913.425094,223.959304 913.429091,225.34702 C913.433199,226.778865 912.265543,227.943072 910.820879,227.947254 L910.709853,227.947254 C909.265855,227.919851 908.117517,226.737267 908.145162,225.306082 C908.172808,223.874676 909.365778,222.736551 910.809776,222.763843 L910.920802,222.763843 Z M901.595764,196.009904 C901.761192,196 901.928841,196 902.130907,196.0011 C908.171809,196.009904 912.059924,200.157645 912.514019,206.100282 C913.225693,215.414815 906.001259,227.993397 896.085565,228 C894.309156,227.9989 892.447257,227.592929 890.528735,226.690419 C883.156638,223.224981 877.071326,212.953023 881.500136,205.189078 C885.201729,198.695096 894.575617,196.230002 901.595764,196.009904 Z M888.07507,209.027625 L888.07507,209.028725 C888.088837,208.99406 888.116483,208.966658 888.151345,208.953012 C888.220958,208.92583 888.299675,208.959725 888.327098,209.028725 L889.569474,212.209137 C889.575026,212.223883 889.578023,212.23951 889.578134,212.255137 C889.578912,212.32931 889.518847,212.390057 889.444016,212.390717 L886.94261,212.390717 C886.926178,212.390607 886.909968,212.387526 886.894646,212.381693 C886.824811,212.354841 886.790171,212.277147 886.817151,212.207926 L888.07507,209.027625 Z M885.965585,214.393606 L885.965585,214.392506 C885.985791,214.341223 886.035531,214.307658 886.091043,214.307658 L890.294471,214.307658 C890.350095,214.308098 890.399835,214.342103 890.41993,214.393606 L891.07054,216.056444 C891.090636,216.107837 891.140375,216.141842 891.195999,216.142172 L893.620798,216.142172 C893.638451,216.142172 893.655993,216.138651 893.672313,216.131938 C893.741371,216.103325 893.774013,216.02475 893.745146,215.9563 L889.628318,206.272002 C889.607223,206.22248 889.55815,206.190346 889.503969,206.190566 L887.061407,206.190566 C887.007448,206.190126 886.958486,206.22171 886.937058,206.270902 L882.718087,215.955199 C882.710981,215.971816 882.707206,215.989754 882.707206,216.007802 C882.707095,216.081975 882.767604,216.142062 882.842435,216.142172 L885.173972,216.142172 C885.229374,216.142062 885.279002,216.108497 885.299431,216.057545 L885.965585,214.393606 Z M902.631622,211.311138 L902.629401,211.306736 C902.629401,209.516242 901.511374,208.365131 899.804911,208.365131 C898.813452,208.377236 898.019619,208.718388 897.464492,209.389686 C897.438734,209.42292 897.398764,209.442289 897.356353,209.441739 C897.282188,209.440968 897.222789,209.380662 897.223566,209.307149 L897.223566,208.612741 C897.223566,208.538568 897.162946,208.478481 897.088115,208.478481 L894.877596,208.478481 C894.876486,208.478481 894.875375,208.478481 894.874265,208.478481 C894.799434,208.480352 894.740368,208.541869 894.742145,208.616042 L894.742145,216.009013 C894.742145,216.083186 894.802765,216.143383 894.877596,216.143383 L897.090335,216.143383 C897.165167,216.143383 897.225787,216.083186 897.225787,216.009013 L897.225787,212.101289 C897.225454,212.095456 897.225454,212.089514 897.225787,212.083681 C897.32904,211.17908 897.901932,210.542997 898.80235,210.542997 C899.633931,210.542997 900.164633,211.096543 900.164633,211.992341 L900.164633,216.009013 C900.164633,216.083186 900.225253,216.143383 900.300085,216.143383 L902.49617,216.143383 C902.571002,216.143383 902.631622,216.083186 902.631622,216.009013 L902.631622,211.311138 Z M908.367214,216.938992 L911.636917,208.671023 C911.643356,208.655066 911.646687,208.638008 911.646576,208.62073 C911.646132,208.547218 911.585623,208.488012 911.511458,208.488342 L909.340908,208.488342 C909.282286,208.488342 909.230326,208.525648 909.212118,208.580783 L907.685517,213.210537 C907.67186,213.248724 907.641551,213.278767 907.603025,213.292303 C907.532523,213.317064 907.455139,213.280418 907.430158,213.210537 L905.699269,208.569778 C905.679396,208.517615 905.62899,208.482949 905.5727,208.482839 L903.318881,208.482839 C903.301228,208.482949 903.283686,208.486471 903.267365,208.493184 C903.198307,208.521797 903.165666,208.600481 903.194532,208.668822 L906.303248,215.916638 C906.319125,215.951634 906.319125,215.991801 906.303248,216.026687 L906.143371,216.356833 C905.985382,216.740904 905.601012,216.985322 905.183,216.967604 C904.854365,216.963092 904.536831,216.849082 904.281473,216.644061 C904.277365,216.640979 904.273146,216.638118 904.268705,216.635477 C904.20542,216.59817 904.123705,216.61886 904.086068,216.681477 L903.197863,218.12873 C903.161003,218.187606 903.175991,218.26464 903.232281,218.305798 C903.849805,218.774056 904.607666,219.023537 905.385067,219.014513 C906.818407,219.014513 907.793211,218.33221 908.367214,216.938992 Z M921.845762,216.009057 L921.833549,210.312929 C921.831884,210.238866 921.769932,210.17999 921.695323,210.181531 C921.643252,210.182632 921.596399,210.213115 921.57486,210.260106 L919.458712,215.067039 C919.437284,215.115681 919.388877,215.147045 919.335474,215.147375 L917.84762,215.147375 C917.794217,215.147045 917.745921,215.115681 917.724493,215.067039 L915.615007,210.263517 C915.584031,210.195947 915.503649,210.166234 915.43559,210.197048 C915.387849,210.218507 915.356984,210.265388 915.356318,210.317331 L915.356318,216.009057 C915.356318,216.08323 915.295698,216.143427 915.220866,216.143427 L913.211193,216.143427 C913.136472,216.143427 913.075852,216.08323 913.075852,216.009057 L913.075852,206.313755 C913.075852,206.239692 913.136472,206.179495 913.211193,206.179495 L915.785987,206.179495 C915.838835,206.179495 915.88702,206.209979 915.909114,206.25763 L918.475026,211.839307 C918.506668,211.906547 918.587273,211.935489 918.655109,211.904015 C918.683865,211.890699 918.706958,211.867809 918.720392,211.839307 L921.279421,206.25763 C921.301626,206.209979 921.3497,206.179495 921.40277,206.179495 L923.966351,206.179495 C924.041071,206.179495 924.101691,206.239692 924.101691,206.313755 L924.101691,216.009057 C924.101691,216.08323 924.041071,216.143427 923.966351,216.143427 L921.981213,216.143427 C921.906826,216.143427 921.846317,216.08389 921.845762,216.010268 L921.845762,216.009057 Z M926.104636,216.009057 L926.104636,208.615976 C926.104636,208.541803 926.165367,208.481717 926.240199,208.481717 L928.436173,208.481717 C928.511005,208.481717 928.571736,208.541803 928.571736,208.615976 L928.571736,216.009057 C928.571736,216.08323 928.511005,216.143427 928.436173,216.143427 L926.240199,216.143427 C926.165367,216.143427 926.104636,216.08323 926.104636,216.009057 Z M938.450702,211.311138 L938.450702,216.009013 C938.450702,216.083186 938.390082,216.143383 938.315251,216.143383 L936.119165,216.143383 C936.044334,216.143383 935.983714,216.083186 935.983714,216.009013 L935.983714,211.992341 C935.983714,211.096543 935.453012,210.542997 934.62143,210.542997 C933.721013,210.542997 933.148121,211.17908 933.044867,212.083681 L933.044867,212.101289 L933.044867,216.009013 C933.044867,216.083186 932.984247,216.143383 932.909416,216.143383 L930.698897,216.143383 C930.624065,216.143383 930.563445,216.083186 930.563445,216.009013 L930.563445,208.616042 C930.563445,208.541869 930.624065,208.481783 930.698897,208.481783 L932.909416,208.481783 C932.984247,208.481783 933.044867,208.541869 933.044867,208.616042 L933.044867,209.310451 C933.04409,209.383963 933.103488,209.44427 933.177765,209.44504 C933.220065,209.44548 933.260034,209.426222 933.285792,209.392987 C933.84092,208.721689 934.634753,208.380538 935.626211,208.368432 C937.332674,208.368432 938.450702,209.519543 938.450702,211.310038 L938.450702,211.311138 Z M947.865659,216.14335 L945.65403,216.14335 C945.579198,216.14335 945.518579,216.083263 945.518579,216.00909 L945.518579,215.495162 C945.519134,215.421649 945.459513,215.361563 945.385237,215.361012 C945.348487,215.360682 945.313292,215.375429 945.287645,215.40162 C944.759164,215.944161 944.053041,216.242394 943.195924,216.242394 C941.016492,216.242394 939.582152,214.651087 939.582152,212.280636 C939.582152,209.935495 941.000948,208.386007 943.134971,208.386007 C944.023175,208.386007 944.750282,208.68534 945.285425,209.228981 C945.337607,209.281255 945.422652,209.281695 945.475501,209.229972 C945.501148,209.204771 945.515581,209.170215 945.515248,209.134339 L945.515248,205.727227 C945.515248,205.653055 945.575979,205.592968 945.650699,205.592968 L947.861218,205.592968 C947.936049,205.591207 947.998113,205.649753 948,205.723926 L948,205.727227 L948,216.005789 C948,216.079521 947.940046,216.139388 947.865659,216.140048 L947.865659,216.14335 Z M945.519689,212.330158 C945.519689,211.150434 944.83133,210.340475 943.798792,210.340475 C942.766255,210.340475 942.077896,211.153735 942.063463,212.330158 C942.077896,213.509881 942.766255,214.334147 943.798792,214.334147 C944.83133,214.334147 945.519689,213.509881 945.519689,212.330158 Z M928.673835,206.287365 C928.673835,207.006424 928.085732,207.589243 927.360402,207.589243 C926.634961,207.589243 926.04697,207.006424 926.04697,206.287365 C926.04697,205.568416 926.634961,204.985487 927.360402,204.985487 C928.085732,204.985487 928.673835,205.568416 928.673835,206.287365 Z"/>
  </defs>
  <g fill="none" fill-rule="evenodd" transform="translate(-880 -196)">
    <use fill="#8A3DFF" xlink:href="#logo_vertical_color-a"/>
  </g>
</svg>
