<svg xmlns="http://www.w3.org/2000/svg" xmlns:xlink="http://www.w3.org/1999/xlink" width="347" height="77" viewBox="0 0 347 77">
  <defs>
    <circle id="logo_full-a" cx="8" cy="8" r="8"/>
  </defs>
  <g fill="none" fill-rule="evenodd">
    <path fill="#221B2E" d="M222.999483 19L222.539376 19C219.097363 19 211 21.8629927 211 25.7803049L211 53.3135823 211 57 223 57 223 53.3135823 222.999483 53.3135823 222.999483 19zM70.4870703 15.0059523C67.3706104 14.9335322 63.1792878 16.4573309 61.4601 18.795112L61.4601 15 61.0201814 15C57.7333827 15 50 17.8789479 50 21.817412L50 53.293181 50 53.4657989 50 57 61.4605937 57 61.4605937 53.293181 61.4601 53.293181 61.4601 35.3925142C61.4601 30.5825285 65.2189101 26.6006122 69.8397828 26.5157914 72.1440474 26.473133 74.3337654 27.3449522 75.9823489 28.9709327 77.6314263 30.5974093 78.5399 32.7715011 78.5399 35.0934092L78.5399 53.293181 78.5399 53.4657989 78.5399 57 90 57 90 35.564636C90 24.487532 81.2465593 15.264383 70.4870703 15.0059523M250.48707 15.0059523C247.37061 14.9335322 243.179288 16.4573309 241.4601 18.795112L241.4601 15 241.020675 15C237.733383 15 230 17.8789479 230 21.817412L230 53.293181 230 53.4657989 230 57 241.460594 57 241.460594 53.293181 241.4601 53.293181 241.4601 35.3925142C241.4601 30.5825285 245.21891 26.6006122 249.839783 26.5157914 252.144047 26.473133 254.333765 27.3449522 255.982349 28.9709327 257.631426 30.5974093 258.5399 32.7715011 258.5399 35.0934092L258.5399 53.293181 258.5399 53.4657989 258.5399 57 270 57 270 35.564636C270 24.487532 261.246559 15.264383 250.48707 15.0059523M185.905743 15.8837832C181.216177 15.9172893 177.110591 17.4896464 174.000253 20.4357523 170.853954 17.4556548 166.694175 15.8832976 161.939272 15.8832976 159.74365 15.8832976 157.771895 16.6995831 155.756582 18.7060623L155.756582 15 155.305809 15C151.751787 15 144 18.7934694 144 22.5573176L144 53.3711473 144 53.5401344 144 57 155.756582 57 155.756582 33.227203C155.756582 29.9280695 158.467809 27.2044633 161.800495 27.1559038 163.547369 27.1355088 164.963508 27.6006118 165.973443 28.5543208 167.398698 29.899905 168.121962 32.2555271 168.121962 35.5541751L168.121962 53.3711473 168.121962 57 179.878544 57 179.878544 53.3711473 179.878038 53.3711473 179.878544 33.227203C179.878544 29.9280695 182.589771 27.2044633 185.922457 27.1559038 187.669331 27.1355088 189.08547 27.6006118 190.094899 28.5543208 191.52066 29.9003906 192.243924 32.2555271 192.243924 35.5541751L192.243924 53.3711473 192.243418 53.3711473 192.243418 57 204 57 204 33.4918524C204 28.7791513 202.001401 24.1748351 198.517782 20.8591913 195.111149 17.6168724 190.622152 15.8536763 185.905743 15.8837832M125.539548 21.8666839L125.539548 36.9684921C125.539548 41.7328036 121.708206 45.6093025 116.999506 45.6093025 112.2913 45.6093025 108.459959 41.7328036 108.459959 36.9684921L108.459959 15 108.021033 15C104.733287 15 97 17.899755 97 21.8666839L97 37.20381 97.0059248 37.6484657 97.0157993 37.6484657C97.3722721 48.473585 106.24805 57.2063241 116.999506 57.2063241 119.990027 57.2063241 122.85909 56.5553281 125.539548 55.2683245L125.539548 56.762168C125.539548 61.5264795 121.708206 65.403478 116.999506 65.403478L110.298114 65.403478 110.298114 65.8476341C110.298114 69.0061888 112.952898 76.3974665 116.637109 76.9615298L116.644021 77 117.08344 77 117.225141 76.9980015 117.226622 76.9970023C128.141997 76.8730982 137 67.8246035 137 56.762168L137 15 136.560087 15C133.272835 15 125.539548 17.899755 125.539548 21.8666839M223 8.07155906L223 0 222.539873 0C219.097712 0 211 2.92485039 211 6.92611024L211 7.49858268 211 14.9971654 211.460127 14.9971654C214.902288 14.9971654 223 12.072315 223 8.07155906M298.460267 46.3067395C292.389691 46.3067395 288.14934 41.9881822 288.14934 35.804725 288.14934 29.6212679 292.389691 25.303061 298.460267 25.303061 304.578121 25.303061 308.85066 29.6212679 308.85066 35.804725 308.85066 41.9881822 304.578121 46.3067395 298.460267 46.3067395L298.460267 46.3067395zM319.989438 53.2591862C319.992959 53.189096 320 53.1205077 320 53.0499169L320 0 319.552377 0C316.203752 0 308.325582 2.90573923 308.325582 6.88035393L308.325582 18.6875479C305.977824 16.3505406 303.090402 14.6092999 297.373398 14.6092999 286.329676 14.6092999 277 24.3132874 277 35.8002192 277 47.2870009 286.329676 56.991489 297.373398 56.991489 301.255146 56.991489 305.023229 55.8004564 308.325582 53.5405482L308.325582 57 320 57 320 53.2591862 319.989438 53.2591862zM43 53.2933926L43 56.9997024 31.3259705 57 31.3252161 53.5721595C28.0234043 55.811223 24.2553657 56.9912699 20.3731593 56.9912699 9.33007006 56.9912699-2.13162821e-14 47.3762928-2.13162821e-14 35.9954614-2.13162821e-14 24.6144811 9.33007006 15 20.3731593 15 25.4307105 15 29.6866096 17.0074311 31.8604581 20.0475593 33.6879064 17.045955 39.7296689 15 42.5521305 15L42.9997485 15 42.9997485 53.2933926zM21.4600161 46.4050729C27.5777981 46.4050729 31.8502871 42.1263486 31.8502871 35.9999256 31.8502871 29.8735026 27.5777981 25.5951255 21.4600161 25.5951255 15.3895107 25.5951255 11.1492099 29.8735026 11.1492099 35.9999256 11.1492099 42.1263486 15.3895107 46.4050729 21.4600161 46.4050729z"/>
    <g transform="rotate(-45 220.991 -366.224)">
      <mask id="logo_full-b" fill="#fff">
        <use xlink:href="#logo_full-a"/>
      </mask>
      <use fill="#D8D8D8" xlink:href="#logo_full-a"/>
      <rect width="16" height="8" fill="#EE2D6D" mask="url(#logo_full-b)"/>
      <rect width="16" height="8" y="8" fill="#694B9E" mask="url(#logo_full-b)"/>
    </g>
  </g>
</svg>
