<svg xmlns="http://www.w3.org/2000/svg" xmlns:xlink="http://www.w3.org/1999/xlink" width="248" height="248" viewBox="0 0 248 248">
  <defs>
    <rect id="01---floating-button-a" width="248" height="248" rx="8"/>
    <path id="01---floating-button-c" d="M14.7446077,12.3249867 L12.8059648,11.0504266 C12.6987207,10.9871571 12.5896434,10.9532299 12.4842325,10.9303062 C12.4512344,10.9238875 12.4219026,10.9202197 12.3898211,10.9165519 C12.313742,10.9073824 12.2413293,10.9037146 12.1698332,10.9092163 C12.1551674,10.9101333 12.1377517,10.9055485 12.1240024,10.9073824 C12.1102532,10.9082994 12.101087,10.9119672 12.089171,10.9138011 C12.0002593,10.9248045 11.9159306,10.9413096 11.8453511,10.9633164 C11.8224357,10.969735 11.812353,10.9761537 11.7912708,10.9834893 C11.7399403,11.0018282 11.6849433,11.0210842 11.6510285,11.0375893 L10.532757,11.7106304 C10.434679,11.7702321 10.3265183,11.7922389 10.2192743,11.8151627 C10.0405341,11.8527576 9.85996077,11.8582593 9.68947018,11.7968237 C9.59872519,11.7638135 9.51073005,11.717049 9.43098446,11.6556134 C9.28432589,11.5428286 9.13125101,11.4199573 8.97359304,11.2869996 C8.81593508,11.1540419 8.65277742,11.0119147 8.48503669,10.859701 L8.31362948,10.6882314 L8.14222228,10.5176788 C7.99098063,10.34896 7.84798853,10.185743 7.7150792,10.0280276 C7.58308649,9.87031226 7.46025993,9.71809861 7.34751616,9.57138665 C7.28518627,9.49069507 7.23843885,9.40358484 7.20544067,9.31188987 C7.12936154,9.10282533 7.15319356,8.87725569 7.22652284,8.6636064 C7.24943824,8.59850297 7.25493794,8.52973174 7.29160258,8.4682961 L7.85990453,7.52475482 L7.96531538,7.35053437 C7.98731417,7.30193603 8.01389603,7.23591565 8.03956128,7.15522407 C8.06064345,7.08461894 8.07714254,7.00025956 8.08814193,6.91223239 C8.08997516,6.89939509 8.09364163,6.89022559 8.09547486,6.8773883 C8.10647425,6.76643738 8.09822471,6.64448306 8.07255946,6.51886095 C8.07439269,6.52803044 8.07439269,6.53536604 8.07622592,6.54361859 C8.07439269,6.53536604 8.07439269,6.5271135 8.07255946,6.51886095 L8.07255946,6.517944 L8.07255946,6.51886095 C8.04964406,6.41432868 8.01664588,6.30796251 7.9552326,6.20067939 C7.95339937,6.19884549 7.95339937,6.19701159 7.95156614,6.19517769 L6.67746982,4.25582898 C6.33648865,3.91472367 5.78193593,3.91472367 5.44187138,4.25582898 L4.33918226,5.37909242 C4.33826565,5.38000937 4.33734903,5.38092631 4.33734903,5.38184326 C4.33643241,5.38276021 4.3355158,5.38459411 4.33459918,5.38551106 C4.08894608,5.63308749 3.98078538,5.9631894 4.00278417,6.28595571 C4.0046174,6.30337776 4.00645063,6.31988285 4.00828387,6.3373049 C4.06786391,8.02724328 5.40612335,10.0821277 7.19077481,11.8665119 C8.95159426,13.6288893 10.9745659,14.9520477 12.6519733,14.9923935 C12.6831382,14.9969783 12.7133866,14.9978952 12.7454681,14.9988122 C13.0580342,15.0125664 13.3751833,14.9071172 13.6153368,14.6696272 C13.6162534,14.6687103 13.6180866,14.6677933 13.6180866,14.6668764 C13.6190032,14.6659594 13.6190032,14.6641255 13.6199198,14.6641255 L14.7446077,13.5619519 C15.0855889,13.2208466 15.0846723,12.666092 14.7446077,12.3249867"/>
  </defs>
  <g fill="none" fill-rule="evenodd">
    <mask id="01---floating-button-b" fill="#fff">
      <use xlink:href="#01---floating-button-a"/>
    </mask>
    <use fill="#2C2F34" xlink:href="#01---floating-button-a"/>
    <g fill-opacity=".15" mask="url(#01---floating-button-b)">
      <g transform="translate(12 140)">
        <g fill="#FFF" transform="translate(28)">
          <rect width="22.2" height="5" rx="2.5"/>
          <rect width="26.4" height="5" y="18" rx="2.5"/>
          <rect width="31.2" height="5" y="9" rx="2.5"/>
          <rect width="16.8" height="5" y="27" rx="2.5"/>
          <rect width="36" height="5" y="36" rx="2.5"/>
        </g>
        <circle cx="8" cy="8" r="8" fill="#FFF"/>
        <g transform="translate(80)">
          <g fill="#FFF" transform="translate(28)">
            <rect width="22.2" height="5" rx="2.5"/>
            <rect width="26.4" height="5" y="18" rx="2.5"/>
            <rect width="31.2" height="5" y="9" rx="2.5"/>
            <rect width="16.8" height="5" y="27" rx="2.5"/>
            <rect width="36" height="5" y="36" rx="2.5"/>
          </g>
          <circle cx="8" cy="8" r="8" fill="#FFF"/>
        </g>
        <g transform="translate(160)">
          <g fill="#FFF" transform="translate(28)">
            <rect width="22.2" height="5" rx="2.5"/>
            <rect width="26.4" height="5" y="18" rx="2.5"/>
            <rect width="31.2" height="5" y="9" rx="2.5"/>
            <rect width="16.8" height="5" y="27" rx="2.5"/>
            <rect width="36" height="5" y="36" rx="2.5"/>
          </g>
          <circle cx="8" cy="8" r="8" fill="#FFF"/>
        </g>
      </g>
    </g>
    <g mask="url(#01---floating-button-b)">
      <g transform="translate(12 44)">
        <g fill-opacity=".15" transform="translate(92 33)">
          <rect width="37" height="5" fill="#FFF" rx="2.5"/>
          <rect width="84" height="5" y="18" fill="#FFF" rx="2.5"/>
          <rect width="92" height="5" y="9" fill="#FFF" rx="2.5"/>
          <rect width="68" height="5" y="27" fill="#FFF" rx="2.5"/>
          <rect width="100" height="5" y="36" fill="#FFF" rx="2.5"/>
        </g>
        <rect width="77" height="13" x="92" y="8" fill="#FFF" fill-opacity=".15" rx="6.5"/>
        <g>
          <rect width="80" height="80" fill="#FFF" fill-opacity=".15" rx="8"/>
          <path fill="#2C2F34" fill-rule="nonzero" d="M48 30L32 30 32 29C32 28.4477153 32.4477153 28 33 28L47 28C47.5522847 28 48 28.4477153 48 29L48 30zM51 32L29 32C28.4477153 32 28 32.4477153 28 33L28 51C28 51.5522847 28.4477153 52 29 52L51 52C51.5522847 52 52 51.5522847 52 51L52 33C52 32.4477153 51.5522847 32 51 32zM35 36C36.1045695 36 37 36.8954305 37 38 37 39.1045695 36.1045695 40 35 40 33.8954305 40 33 39.1045695 33 38 33 36.8954305 33.8954305 36 35 36zM33 47L43 38 48 47 33 47z"/>
        </g>
      </g>
    </g>
    <g fill="#FFF" fill-opacity=".15" mask="url(#01---floating-button-b)">
      <rect width="248" height="32"/>
      <rect width="26" height="5" x="112" y="14" rx="2.5"/>
      <rect width="26" height="5" x="210" y="14" rx="2.5"/>
      <rect width="42" height="5" x="142" y="14" rx="2.5"/>
      <rect width="18" height="5" x="188" y="14" rx="2.5"/>
      <circle cx="20" cy="16" r="8"/>
    </g>
    <g mask="url(#01---floating-button-b)">
      <g transform="translate(204 204)">
        <circle cx="16" cy="16" r="16" fill="#8A3DFF"/>
        <g transform="translate(6.4 6.4)">
          <mask id="01---floating-button-d" fill="#fff">
            <use xlink:href="#01---floating-button-c"/>
          </mask>
          <use fill="#FFF" xlink:href="#01---floating-button-c"/>
          <g fill="#FFF" mask="url(#01---floating-button-d)">
            <rect width="19" height="19"/>
          </g>
        </g>
      </g>
    </g>
    <rect width="247" height="247" x=".5" y=".5" stroke="#2C2F34" mask="url(#01---floating-button-b)" rx="8"/>
    <g fill="#FFF" fill-opacity=".15" mask="url(#01---floating-button-b)">
      <g transform="translate(12 195)">
        <rect width="100" height="5" y="18" rx="2.5"/>
        <rect width="60" height="5" y="27" rx="2.5"/>
        <rect width="84" height="5" y="36" rx="2.5"/>
        <rect width="68" height="5" y="9" rx="2.5"/>
        <rect width="84" height="5" rx="2.5"/>
      </g>
    </g>
  </g>
</svg>
