<svg xmlns="http://www.w3.org/2000/svg" xmlns:xlink="http://www.w3.org/1999/xlink" width="248" height="248" viewBox="0 0 248 248">
  <defs>
    <rect id="03---button-a" width="248" height="248" rx="8"/>
    <rect id="03---button-c" width="77" height="24" rx="12"/>
  </defs>
  <g fill="none" fill-rule="evenodd">
    <mask id="03---button-b" fill="#fff">
      <use xlink:href="#03---button-a"/>
    </mask>
    <use fill="#2C2F34" xlink:href="#03---button-a"/>
    <g fill-opacity=".15" mask="url(#03---button-b)">
      <g transform="translate(12 140)">
        <g fill="#FFF" transform="translate(28)">
          <rect width="22.2" height="5" rx="2.5"/>
          <rect width="26.4" height="5" y="18" rx="2.5"/>
          <rect width="31.2" height="5" y="9" rx="2.5"/>
          <rect width="16.8" height="5" y="27" rx="2.5"/>
          <rect width="36" height="5" y="36" rx="2.5"/>
        </g>
        <circle cx="8" cy="8" r="8" fill="#FFF"/>
        <g transform="translate(80)">
          <g fill="#FFF" transform="translate(28)">
            <rect width="22.2" height="5" rx="2.5"/>
            <rect width="26.4" height="5" y="18" rx="2.5"/>
            <rect width="31.2" height="5" y="9" rx="2.5"/>
            <rect width="16.8" height="5" y="27" rx="2.5"/>
            <rect width="36" height="5" y="36" rx="2.5"/>
          </g>
          <circle cx="8" cy="8" r="8" fill="#FFF"/>
        </g>
        <g transform="translate(160)">
          <g fill="#FFF" transform="translate(28)">
            <rect width="22.2" height="5" rx="2.5"/>
            <rect width="26.4" height="5" y="18" rx="2.5"/>
            <rect width="31.2" height="5" y="9" rx="2.5"/>
            <rect width="16.8" height="5" y="27" rx="2.5"/>
            <rect width="36" height="5" y="36" rx="2.5"/>
          </g>
          <circle cx="8" cy="8" r="8" fill="#FFF"/>
        </g>
      </g>
    </g>
    <g mask="url(#03---button-b)">
      <g transform="translate(12 44)">
        <g fill-opacity=".15" transform="translate(92)">
          <rect width="37" height="5" fill="#FFF" rx="2.5"/>
          <rect width="84" height="5" y="18" fill="#FFF" rx="2.5"/>
          <rect width="92" height="5" y="9" fill="#FFF" rx="2.5"/>
          <rect width="68" height="5" y="27" fill="#FFF" rx="2.5"/>
          <rect width="100" height="5" y="36" fill="#FFF" rx="2.5"/>
        </g>
        <rect width="80" height="80" fill="#FFF" fill-opacity=".15" rx="8"/>
        <path fill="#2C2F34" d="M48 30L32 30 32 29C32 28.4477153 32.4477153 28 33 28L47 28C47.5522847 28 48 28.4477153 48 29L48 30zM51 32L29 32C28.4477153 32 28 32.4477153 28 33L28 51C28 51.5522847 28.4477153 52 29 52L51 52C51.5522847 52 52 51.5522847 52 51L52 33C52 32.4477153 51.5522847 32 51 32zM35 36C36.1045695 36 37 36.8954305 37 38 37 39.1045695 36.1045695 40 35 40 33.8954305 40 33 39.1045695 33 38 33 36.8954305 33.8954305 36 35 36zM33 47L43 38 48 47 33 47z"/>
      </g>
    </g>
    <g fill="#FFF" fill-opacity=".15" mask="url(#03---button-b)">
      <rect width="248" height="32"/>
      <rect width="26" height="5" x="112" y="14" rx="2.5"/>
      <rect width="26" height="5" x="210" y="14" rx="2.5"/>
      <rect width="42" height="5" x="142" y="14" rx="2.5"/>
      <rect width="18" height="5" x="188" y="14" rx="2.5"/>
      <circle cx="20" cy="16" r="8"/>
    </g>
    <rect width="247" height="247" x=".5" y=".5" stroke="#2C2F34" mask="url(#03---button-b)" rx="8"/>
    <g mask="url(#03---button-b)">
      <g transform="translate(104 100)">
        <use fill="#8A3DFF" xlink:href="#03---button-c"/>
        <text fill="#FFF" font-family="Roboto-Black, Roboto" font-size="11" font-weight="700">
          <tspan x="16" y="15">Zadzwoń</tspan>
        </text>
      </g>
    </g>
    <g fill="#FFF" fill-opacity=".15" mask="url(#03---button-b)">
      <g transform="translate(12 195)">
        <rect width="100" height="5" y="18" rx="2.5"/>
        <rect width="60" height="5" y="27" rx="2.5"/>
        <rect width="84" height="5" y="36" rx="2.5"/>
        <rect width="68" height="5" y="9" rx="2.5"/>
        <rect width="84" height="5" rx="2.5"/>
      </g>
    </g>
    <g fill="#FFF" fill-opacity=".15" mask="url(#03---button-b)">
      <g transform="translate(136 195)">
        <rect width="100" height="5" y="18" rx="2.5"/>
        <rect width="60" height="5" y="27" rx="2.5"/>
        <rect width="84" height="5" y="36" rx="2.5"/>
        <rect width="68" height="5" y="9" rx="2.5"/>
        <rect width="84" height="5" rx="2.5"/>
      </g>
    </g>
  </g>
</svg>
