<svg xmlns="http://www.w3.org/2000/svg" xmlns:xlink="http://www.w3.org/1999/xlink" width="248" height="248" viewBox="0 0 248 248">
  <defs>
    <rect id="05---banner-a" width="248" height="248" rx="8"/>
    <path id="05---banner-c" d="M50.0662587,43.4905633 L50.2466766,43.4905633 C52.5195813,43.5833764 54.3161826,45.433201 54.3226777,47.688256 C54.3293531,50.015022 52.4318982,51.9068719 50.0843005,51.9136674 L49.9038826,51.9136674 C47.5573675,51.8691386 45.6913053,49.947424 45.7362293,47.621731 C45.7811534,45.2956802 47.7197436,43.4462133 50.0662587,43.4905633 Z M35.0933779,0.0150888391 C35.3622005,-0.00100592261 35.6346315,-0.00100592261 35.9629921,0.000782384252 C45.7795296,0.0150888391 52.0977642,6.7552174 52.8356734,16.4120744 C53.9921521,31.5483037 42.2523598,51.9886511 26.1392378,51.999381 C23.2525516,51.9975927 20.2269435,51.3378863 17.1093223,49.8712958 C5.12957426,44.2399175 -4.75913042,27.5478613 2.43773931,14.9313564 C8.45287184,4.37855758 23.6855545,0.372750211 35.0933779,0.0150888391 Z"/>
  </defs>
  <g fill="none" fill-rule="evenodd">
    <mask id="05---banner-b" fill="#fff">
      <use xlink:href="#05---banner-a"/>
    </mask>
    <use fill="#2C2F34" xlink:href="#05---banner-a"/>
    <g fill="#FFF" fill-opacity=".15" mask="url(#05---banner-b)">
      <g transform="translate(12 195)">
        <rect width="100" height="5" y="18" rx="2.5"/>
        <rect width="60" height="5" y="27" rx="2.5"/>
        <rect width="84" height="5" y="36" rx="2.5"/>
        <rect width="68" height="5" y="9" rx="2.5"/>
        <rect width="84" height="5" rx="2.5"/>
      </g>
    </g>
    <g fill="#FFF" fill-opacity=".15" mask="url(#05---banner-b)">
      <g transform="translate(136 195)">
        <rect width="100" height="5" y="18" rx="2.5"/>
        <rect width="60" height="5" y="27" rx="2.5"/>
        <rect width="84" height="5" y="36" rx="2.5"/>
        <rect width="68" height="5" y="9" rx="2.5"/>
        <rect width="84" height="5" rx="2.5"/>
      </g>
    </g>
    <g fill-opacity=".15" mask="url(#05---banner-b)">
      <g transform="translate(12 140)">
        <g fill="#FFF" transform="translate(28)">
          <rect width="22.2" height="5" rx="2.5"/>
          <rect width="26.4" height="5" y="18" rx="2.5"/>
          <rect width="31.2" height="5" y="9" rx="2.5"/>
          <rect width="16.8" height="5" y="27" rx="2.5"/>
          <rect width="36" height="5" y="36" rx="2.5"/>
        </g>
        <circle cx="8" cy="8" r="8" fill="#FFF"/>
        <g transform="translate(80)">
          <g fill="#FFF" transform="translate(28)">
            <rect width="22.2" height="5" rx="2.5"/>
            <rect width="26.4" height="5" y="18" rx="2.5"/>
            <rect width="31.2" height="5" y="9" rx="2.5"/>
            <rect width="16.8" height="5" y="27" rx="2.5"/>
            <rect width="36" height="5" y="36" rx="2.5"/>
          </g>
          <circle cx="8" cy="8" r="8" fill="#FFF"/>
        </g>
        <g transform="translate(160)">
          <g fill="#FFF" transform="translate(28)">
            <rect width="22.2" height="5" rx="2.5"/>
            <rect width="26.4" height="5" y="18" rx="2.5"/>
            <rect width="31.2" height="5" y="9" rx="2.5"/>
            <rect width="16.8" height="5" y="27" rx="2.5"/>
            <rect width="36" height="5" y="36" rx="2.5"/>
          </g>
          <circle cx="8" cy="8" r="8" fill="#FFF"/>
        </g>
      </g>
    </g>
    <g mask="url(#05---banner-b)">
      <g transform="translate(12 44)">
        <g fill-opacity=".15" transform="translate(92 33)">
          <rect width="37" height="5" fill="#FFF" rx="2.5"/>
          <rect width="84" height="5" y="18" fill="#FFF" rx="2.5"/>
          <rect width="92" height="5" y="9" fill="#FFF" rx="2.5"/>
          <rect width="68" height="5" y="27" fill="#FFF" rx="2.5"/>
          <rect width="100" height="5" y="36" fill="#FFF" rx="2.5"/>
        </g>
        <rect width="77" height="13" x="92" y="8" fill="#FFF" fill-opacity=".15" rx="6.5"/>
        <rect width="80" height="80" fill="#8A3DFF" rx="8"/>
      </g>
    </g>
    <g fill="#FFF" fill-opacity=".15" mask="url(#05---banner-b)">
      <rect width="248" height="32"/>
      <rect width="26" height="5" x="112" y="14" rx="2.5"/>
      <rect width="26" height="5" x="210" y="14" rx="2.5"/>
      <rect width="42" height="5" x="142" y="14" rx="2.5"/>
      <rect width="18" height="5" x="188" y="14" rx="2.5"/>
      <circle cx="20" cy="16" r="8"/>
    </g>
    <rect width="247" height="247" x=".5" y=".5" stroke="#2C2F34" mask="url(#05---banner-b)" rx="8"/>
    <g mask="url(#05---banner-b)">
      <g transform="translate(24 51)">
        <use fill="#FFF" xlink:href="#05---banner-c"/>
      </g>
    </g>
    <text fill="#FFF" font-family="Roboto-Black, Roboto" font-size="9" font-weight="700" mask="url(#05---banner-b)">
      <tspan x="20" y="116">Porozmawiajmy</tspan>
    </text>
  </g>
</svg>
