<svg xmlns="http://www.w3.org/2000/svg" width="24" height="24" viewBox="0 0 24 24">
    <path fill="#2C2F34" fill-rule="evenodd" d="M11.474 17.687a2.615 2.615 0 0 1-2.106-2.557c0-1.44 1.179-2.608 2.632-2.608s2.632 1.168 2.632 2.608a2.615 2.615 0 0 1-2.106 2.557v2.14h-1.052v-2.14zm6.315-9.34h1.58c1.453 0 2.631 1.169 2.631 2.61V21.39C22 22.832 20.822 24 19.368 24H4.632C3.178 24 2 22.832 2 21.391V10.957c0-1.441 1.178-2.61 2.632-2.61H6.21V5.745a5.663 5.663 0 0 1 1.68-4.078A5.764 5.764 0 0 1 12 0a5.764 5.764 0 0 1 4.11 1.666 5.66 5.66 0 0 1 1.68 4.073v2.609zm0 1.044H4.631c-.871 0-1.578.701-1.578 1.566V21.39c0 .865.707 1.566 1.579 1.566h14.736c.872 0 1.58-.701 1.58-1.566V10.957c0-.865-.708-1.566-1.58-1.566H17.79zm-1.052-1.043V5.734a4.624 4.624 0 0 0-1.372-3.33 4.707 4.707 0 0 0-3.36-1.36h-.01a4.707 4.707 0 0 0-3.36 1.36 4.627 4.627 0 0 0-1.372 3.335v2.609h9.474zM12 16.696c.872 0 1.579-.701 1.579-1.566 0-.864-.707-1.565-1.579-1.565s-1.579.701-1.579 1.565c0 .865.707 1.566 1.579 1.566z"/>
</svg>
